<?xml version="1.0" encoding="UTF-8" standalone="no"?>
<svg
   xmlns:dc="http://purl.org/dc/elements/1.1/"
   xmlns:cc="http://creativecommons.org/ns#"
   xmlns:rdf="http://www.w3.org/1999/02/22-rdf-syntax-ns#"
   xmlns:svg="http://www.w3.org/2000/svg"
   xmlns="http://www.w3.org/2000/svg"
   xmlns:sodipodi="http://sodipodi.sourceforge.net/DTD/sodipodi-0.dtd"
   xmlns:inkscape="http://www.inkscape.org/namespaces/inkscape"
   id="Layer_1_copy"
   data-name="Layer 1 copy"
   viewBox="0 0 25 25"
   version="1.1"
   sodipodi:docname="alerta-off.svg"
   inkscape:version="1.0.1 (3bc2e813f5, 2020-09-07)">
  <metadata
     id="metadata15">
    <rdf:RDF>
      <cc:Work
         rdf:about="">
        <dc:format>image/svg+xml</dc:format>
        <dc:type
           rdf:resource="http://purl.org/dc/dcmitype/StillImage" />
      </cc:Work>
    </rdf:RDF>
  </metadata>
  <sodipodi:namedview
     pagecolor="#ffffff"
     bordercolor="#666666"
     borderopacity="1"
     objecttolerance="10"
     gridtolerance="10"
     guidetolerance="10"
     inkscape:pageopacity="0"
     inkscape:pageshadow="2"
     inkscape:window-width="1842"
     inkscape:window-height="1051"
     id="namedview13"
     showgrid="false"
     inkscape:zoom="24.890159"
     inkscape:cx="8.3460969"
     inkscape:cy="10.252421"
     inkscape:window-x="69"
     inkscape:window-y="-9"
     inkscape:window-maximized="1"
     inkscape:current-layer="Layer_1_copy" />
  <defs
     id="defs4">
    <style
       id="style2">.cls-1{fill:#fff;}</style>
  </defs>
  <path
     class="cls-1"
     d="M19.08,18.24H6.39a.5.5,0,0,1-.5-.5V10a6.85,6.85,0,0,1,13.69,0v7.74A.51.51,0,0,1,19.08,18.24Zm-12.19-1H18.58V10A5.85,5.85,0,0,0,6.89,10Z"
     id="path6"
     style="fill:#000000;fill-opacity:1" />
  <path
     class="cls-1"
     d="M8,10.59a.5.5,0,0,1-.5-.5A4.87,4.87,0,0,1,12.4,5.23a.5.5,0,0,1,.5.5.5.5,0,0,1-.5.5,3.87,3.87,0,0,0-3.87,3.86A.5.5,0,0,1,8,10.59Z"
     id="path8"
     style="fill:#000000;fill-opacity:1" />
  <path
     class="cls-1"
     d="M21.05,21.84H4a.5.5,0,0,1-.5-.5,4.11,4.11,0,0,1,4.1-4.1h9.9a4.11,4.11,0,0,1,4.1,4.1A.5.5,0,0,1,21.05,21.84Zm-16.56-1h16a3.11,3.11,0,0,0-3.06-2.6H7.55A3.11,3.11,0,0,0,4.49,20.84Z"
     id="path10"
     style="fill:#000000;fill-opacity:1" />
</svg>
