<svg id="Layer_1_copy" data-name="Layer 1 copy" xmlns="http://www.w3.org/2000/svg" viewBox="0 0 25 25"><defs><style>.cls-1{fill:#231f20;}</style></defs><path class="cls-1" d="M19.08,18.24H6.39a.5.5,0,0,1-.5-.5V10a6.85,6.85,0,0,1,13.69,0v7.74A.51.51,0,0,1,19.08,18.24Zm-12.19-1H18.58V10A5.85,5.85,0,0,0,6.89,10Z"/><path class="cls-1" d="M8,10.59a.5.5,0,0,1-.5-.5A4.87,4.87,0,0,1,12.4,5.23a.5.5,0,0,1,.5.5.5.5,0,0,1-.5.5,3.87,3.87,0,0,0-3.87,3.86A.5.5,0,0,1,8,10.59Z"/><path class="cls-1" d="M21.05,21.84H4a.5.5,0,0,1-.5-.5,4.11,4.11,0,0,1,4.1-4.1h9.9a4.11,4.11,0,0,1,4.1,4.1A.5.5,0,0,1,21.05,21.84Zm-16.56-1h16a3.11,3.11,0,0,0-3.06-2.6H7.55A3.11,3.11,0,0,0,4.49,20.84Z"/></svg>