<svg id="Layer_1_copy" data-name="Layer 1 copy" xmlns="http://www.w3.org/2000/svg" viewBox="0 0 40 40"><g id="Layer_2" data-name="Layer 2"><path d="M36.4,31.35a.77.77,0,0,1-.48-.2.67.67,0,0,1,0-1,1.92,1.92,0,0,0,.56-1.36v-7a.68.68,0,0,1,1.36,0v7a3.31,3.31,0,0,1-1,2.32A.72.72,0,0,1,36.4,31.35Z"/><path d="M34.58,32.1H5.39a3.26,3.26,0,0,1-2.31-1,.68.68,0,0,1,.93-1l0,0a1.89,1.89,0,0,0,1.34.55H34.58a1.88,1.88,0,0,0,1.34-.56.67.67,0,0,1,1,0,.68.68,0,0,1,0,1h0A3.25,3.25,0,0,1,34.58,32.1Z"/><path d="M37.16,22.55a.68.68,0,0,1-.68-.66V11.17A1.83,1.83,0,0,0,36,9.89a.69.69,0,0,1-.08-1,.67.67,0,0,1,1-.08A.37.37,0,0,1,37,9a3.23,3.23,0,0,1,.91,2.2V21.89a.68.68,0,0,1-.7.66Z"/><path d="M3.49,10.1A.66.66,0,0,1,3,9,3.27,3.27,0,0,1,5.39,7.9H25.64a.68.68,0,0,1,0,1.36H5.39A1.87,1.87,0,0,0,4,9.89.64.64,0,0,1,3.49,10.1Z"/><path d="M2.8,22.55a.69.69,0,0,1-.68-.68V11.17A3.24,3.24,0,0,1,3,9,.69.69,0,0,1,4,9a.71.71,0,0,1,0,.83,1.85,1.85,0,0,0-.51,1.28v10.7a.68.68,0,0,1-.64.7Z"/><path d="M36.47,10.1a.64.64,0,0,1-.5-.21,1.85,1.85,0,0,0-1.39-.63H25.64a.68.68,0,0,1,0-1.36h8.94A3.24,3.24,0,0,1,37,9a.67.67,0,0,1,0,1A.66.66,0,0,1,36.47,10.1Z"/><path d="M3.56,31.35a.72.72,0,0,1-.48-.2,3.29,3.29,0,0,1-1-2.32v-7a.68.68,0,0,1,1.36,0v7a1.93,1.93,0,0,0,.57,1.36.69.69,0,0,1,0,1A.8.8,0,0,1,3.56,31.35Z"/><path d="M20,21.32a3.2,3.2,0,0,1-1.89-.6L15.51,18.9a.68.68,0,0,1-.16-.95h0a.66.66,0,0,1,.9-.15l2.58,1.81a1.91,1.91,0,0,0,2.21,0l2.58-1.81a.67.67,0,1,1,.75,1.1h0l-2.57,1.82A3.25,3.25,0,0,1,20,21.32Z"/><path d="M24.05,19a.68.68,0,0,1-.67-.68.7.7,0,0,1,.28-.55l12.41-8.9a.65.65,0,0,1,.76,1.06l-12.38,9A.68.68,0,0,1,24.05,19Z"/><path d="M15.91,19a.72.72,0,0,1-.4-.12L3.09,10A.65.65,0,0,1,3.85,9l12.4,8.9a.68.68,0,0,1,.16.95.67.67,0,0,1-.55.28Z"/><path d="M3.56,31.35a.72.72,0,0,1-.48-.2.68.68,0,0,1,0-.95h0l8.79-8.8a.68.68,0,0,1,1,0,.67.67,0,0,1,0,.93l-8.78,8.8A.8.8,0,0,1,3.56,31.35Z"/><path d="M36.4,31.35a.77.77,0,0,1-.48-.2l-8.79-8.8a.68.68,0,0,1,0-1,.67.67,0,0,1,.93,0l8.79,8.8a.67.67,0,0,1,0,.95h0A.72.72,0,0,1,36.4,31.35Z"/></g></svg>