<?xml version="1.0" standalone="no"?>
<!DOCTYPE svg PUBLIC "-//W3C//DTD SVG 20010904//EN"
 "http://www.w3.org/TR/2001/REC-SVG-20010904/DTD/svg10.dtd">
<svg version="1.0" xmlns="http://www.w3.org/2000/svg"
 width="512.000000pt" height="512.000000pt" viewBox="0 0 512.000000 512.000000"
 preserveAspectRatio="xMidYMid meet">

<g transform="translate(0.000000,512.000000) scale(0.100000,-0.100000)"
fill="#000000" stroke="none">
<path d="M815 5109 c-31 -17 -785 -771 -801 -801 -12 -23 -14 -301 -14 -1968
l0 -1942 29 -29 29 -29 141 0 141 0 0 -141 0 -141 29 -29 29 -29 1821 0 1820
0 28 24 28 24 0 189 0 188 -82 3 -83 3 0 -131 0 -130 -1710 0 -1710 0 0 85 0
85 980 0 980 0 0 85 0 85 -1150 0 -1150 0 0 1835 0 1835 356 0 356 0 29 29 29
29 0 356 0 356 1320 0 1320 0 0 -810 0 -810 85 0 85 0 2 638 3 637 85 0 85 0
3 -722 2 -723 85 0 85 0 0 765 c0 834 1 824 -55 845 -15 6 -87 10 -161 10
l-134 0 0 145 c0 142 -1 147 -25 170 l-24 25 -1433 0 c-1011 -1 -1439 -4
-1453 -11z m-45 -524 l0 -235 -235 0 c-129 0 -235 3 -235 7 0 10 453 463 462
463 5 0 8 -106 8 -235z"/>
<path d="M1280 4605 l0 -85 595 0 595 0 0 85 0 85 -595 0 -595 0 0 -85z"/>
<path d="M1280 4265 l0 -85 340 0 340 0 0 85 0 85 -340 0 -340 0 0 -85z"/>
<path d="M2130 4265 l0 -85 170 0 170 0 0 85 0 85 -170 0 -170 0 0 -85z"/>
<path d="M595 3994 c-59 -21 -110 -67 -139 -126 l-26 -52 0 -1426 0 -1426 26
-52 c28 -57 69 -96 129 -123 37 -17 83 -19 708 -19 l667 0 0 85 0 85 -425 0
-425 0 0 125 0 125 340 0 340 0 0 90 0 90 -340 0 -340 0 0 125 0 125 300 0
300 0 0 85 0 85 -300 0 -300 0 0 130 0 130 305 0 305 0 0 85 0 85 -305 0 -305
0 0 125 0 125 383 2 382 3 0 85 0 85 -382 3 -383 2 0 125 0 125 555 0 555 0 0
85 0 85 -555 0 -555 0 0 130 0 130 679 0 680 0 3 -42 3 -43 85 0 85 0 3 43 3
42 340 0 339 0 0 223 c0 257 -9 303 -67 368 -20 22 -55 50 -77 62 l-41 22
-1255 2 c-1071 1 -1261 -1 -1295 -13z m345 -324 l0 -170 -170 0 -170 0 0 143
c0 196 0 196 203 197 l137 0 0 -170z m1530 0 l0 -170 -680 0 -680 0 0 170 0
170 680 0 680 0 0 -170z m657 146 c28 -24 28 -24 31 -170 l3 -146 -255 0 -256
0 0 170 0 170 224 0 c223 0 225 0 253 -24z m-2187 -616 l0 -130 -170 0 -170 0
0 130 0 130 170 0 170 0 0 -130z m0 -425 l0 -125 -170 0 -170 0 0 125 0 125
170 0 170 0 0 -125z m0 -430 l0 -125 -170 0 -170 0 0 125 0 125 170 0 170 0 0
-125z m0 -425 l0 -130 -170 0 -170 0 0 130 0 130 170 0 170 0 0 -130z m0 -425
l0 -125 -170 0 -170 0 0 125 0 125 170 0 170 0 0 -125z m0 -430 l0 -125 -145
0 c-142 0 -147 1 -170 25 -23 22 -25 31 -25 125 l0 100 170 0 170 0 0 -125z"/>
<path d="M3086 3160 c-537 -68 -982 -428 -1149 -930 -52 -156 -62 -231 -62
-440 1 -177 3 -205 27 -300 67 -266 184 -476 368 -660 208 -208 468 -340 765
-387 131 -20 373 -13 495 15 166 39 307 98 440 182 l81 53 332 -330 c294 -293
338 -332 381 -347 212 -70 410 124 341 335 -16 50 -43 79 -356 394 l-339 340
44 85 c56 108 100 233 128 363 31 146 30 389 -1 537 -117 550 -544 970 -1091
1075 -103 19 -309 27 -404 15z m384 -196 c231 -44 444 -158 615 -329 133 -133
222 -273 283 -447 108 -306 88 -628 -58 -923 -65 -133 -117 -206 -218 -309
-464 -475 -1228 -476 -1697 -1 -454 458 -461 1190 -18 1656 195 205 451 334
731 368 93 12 260 5 362 -15z m1157 -2336 c207 -208 314 -322 319 -341 15 -63
-46 -126 -110 -113 -24 5 -104 79 -343 318 l-312 312 62 67 c34 37 64 67 67
68 3 0 145 -140 317 -311z"/>
<path d="M3140 2810 c-518 -50 -920 -495 -920 -1020 0 -560 460 -1020 1020
-1020 263 0 506 95 693 270 105 98 168 183 228 305 108 224 133 454 74 691
-108 429 -461 732 -903 774 -59 5 -109 9 -112 9 -3 -1 -39 -5 -80 -9z m320
-194 c218 -55 420 -215 529 -416 38 -72 75 -160 66 -160 -2 0 -39 23 -82 51
-138 90 -283 149 -456 186 -105 23 -426 25 -532 4 -167 -33 -336 -101 -480
-194 -38 -25 -71 -44 -72 -43 -6 6 28 89 62 155 177 337 585 513 965 417z
m-93 -508 c80 -30 162 -112 192 -193 30 -79 27 -197 -7 -266 -54 -110 -157
-183 -278 -195 -141 -15 -279 66 -340 198 -58 128 -32 280 65 377 39 39 100
76 151 92 52 16 158 10 217 -13z m-591 -111 c-35 -78 -49 -162 -42 -244 5 -67
36 -172 59 -200 16 -22 -9 -15 -76 18 -83 42 -180 108 -247 168 l-55 49 30 32
c51 55 186 151 269 191 44 22 81 39 82 39 2 0 -8 -24 -20 -53z m1091 -40 c37
-24 99 -70 137 -102 l69 -59 -63 -59 c-83 -78 -223 -169 -297 -191 -22 -7 -22
-7 4 56 21 51 27 84 31 168 4 104 -7 159 -53 263 -7 16 -1 15 48 -7 31 -13 87
-44 124 -69z m-1232 -535 c201 -100 358 -135 605 -136 200 0 289 14 452 70
123 43 177 69 286 141 93 60 93 60 42 -53 -82 -183 -222 -327 -408 -419 -250
-123 -561 -110 -801 34 -100 60 -164 117 -236 206 -54 68 -127 200 -141 258
l-6 28 63 -44 c35 -25 100 -63 144 -85z"/>
<path d="M3160 1940 c-74 -44 -105 -128 -75 -205 70 -186 339 -126 323 72 -8
91 -63 145 -155 150 -45 3 -66 -1 -93 -17z"/>
</g>
</svg>
