<?xml version="1.0" standalone="no"?>
<!DOCTYPE svg PUBLIC "-//W3C//DTD SVG 20010904//EN"
 "http://www.w3.org/TR/2001/REC-SVG-20010904/DTD/svg10.dtd">
<svg version="1.0" xmlns="http://www.w3.org/2000/svg"
 width="512.000000pt" height="512.000000pt" viewBox="0 0 512.000000 512.000000"
 preserveAspectRatio="xMidYMid meet">

<g transform="translate(0.000000,512.000000) scale(0.100000,-0.100000)"
fill="#000000" stroke="none">
<path d="M705 5105 c-51 -18 -120 -91 -134 -141 -7 -24 -11 -158 -11 -351 l0
-313 -102 0 c-57 0 -121 -5 -143 -11 -53 -15 -129 -91 -144 -144 -8 -28 -11
-359 -11 -1113 l0 -1073 25 -24 c31 -32 69 -32 100 0 l25 24 0 1071 0 1071 25
24 24 25 1011 0 1012 0 -44 -51 c-178 -208 -291 -452 -315 -679 l-6 -60 -642
0 c-613 0 -644 -1 -666 -19 -32 -26 -32 -86 0 -112 22 -18 53 -19 660 -19
l637 0 12 -102 c7 -57 15 -113 18 -125 l6 -23 -716 0 -717 0 -24 -25 c-32 -31
-32 -69 0 -100 l24 -25 738 0 739 0 29 -67 c16 -38 44 -94 62 -125 l32 -58
-800 0 -800 0 -24 -25 c-32 -31 -32 -69 0 -100 l24 -25 854 0 854 0 78 -76
c42 -41 109 -97 148 -125 l70 -49 -1002 0 -1002 0 -24 -25 -25 -24 0 -626 0
-626 25 -24 24 -25 1126 0 1126 0 24 25 25 24 0 582 0 582 28 -6 c15 -4 59
-13 97 -21 39 -9 82 -16 98 -16 l27 0 0 -890 0 -891 -25 -24 -24 -25 -1376 0
-1376 0 -24 25 -25 24 0 756 0 756 -25 24 c-13 14 -36 25 -50 25 -14 0 -37
-11 -50 -25 l-25 -24 0 -758 c0 -518 4 -771 11 -798 14 -52 94 -130 147 -145
28 -7 471 -9 1440 -8 l1400 3 43 30 c24 17 57 50 74 74 l30 43 3 333 3 333
124 3 c119 4 125 5 166 34 24 17 57 50 74 74 l30 43 3 534 3 535 53 23 c96 42
92 43 124 -15 l30 -51 -31 -50 c-23 -37 -31 -61 -31 -96 0 -43 27 -93 355
-661 247 -427 363 -620 384 -634 46 -34 140 -36 207 -4 99 46 168 144 155 221
-3 20 -158 299 -358 646 -396 686 -373 654 -488 655 l-64 1 -30 52 c-16 29
-28 54 -26 56 219 163 321 278 423 476 60 116 97 219 123 343 25 116 24 371 0
487 -73 340 -264 625 -548 817 -46 32 -174 99 -241 126 l-38 16 0 238 c0 143
-5 254 -11 278 -15 53 -91 129 -144 144 -28 7 -275 11 -798 11 l-758 0 -24
-25 c-14 -13 -25 -36 -25 -50 0 -14 11 -37 25 -50 l24 -25 756 0 756 0 24 -25
25 -24 0 -217 c0 -191 -2 -215 -15 -210 -43 16 -212 28 -325 22 -205 -9 -410
-70 -577 -170 l-76 -46 -928 0 -929 0 0 310 0 311 25 24 24 25 496 0 496 0 24
25 c14 13 25 36 25 50 0 14 -11 37 -25 50 l-24 25 -503 0 c-407 -1 -511 -4
-543 -15z m2731 -746 c210 -29 425 -125 577 -259 l47 -42 0 -813 0 -813 -52
-45 c-247 -210 -569 -301 -890 -252 -185 28 -371 107 -519 220 -86 67 -213
207 -268 297 -62 100 -105 202 -139 327 -22 85 -25 115 -25 266 0 151 3 181
25 266 72 266 216 481 432 641 227 169 530 246 812 207z m855 -612 c69 -134
119 -345 119 -502 0 -90 -23 -241 -51 -330 -22 -75 -82 -204 -123 -270 l-25
-40 0 640 0 640 25 -40 c14 -22 38 -66 55 -98z m-3001 -1862 l0 -125 -290 0
-290 0 0 125 0 125 290 0 290 0 0 -125z m540 0 l0 -125 -195 0 -195 0 0 125 0
125 195 0 195 0 0 -125z m930 0 l0 -125 -390 0 -390 0 0 125 0 125 390 0 390
0 0 -125z m800 -375 l0 -491 -25 -24 c-22 -23 -31 -25 -125 -25 l-100 0 0 499
0 498 83 7 c45 4 98 11 117 16 19 4 38 8 43 9 4 1 7 -220 7 -489z m867 -95
c162 -280 314 -545 338 -587 l43 -77 -19 -25 c-22 -28 -94 -55 -108 -40 -18
18 -671 1156 -671 1168 0 27 75 78 109 73 7 -1 146 -231 308 -512z m-3137 70
l0 -125 -290 0 -290 0 0 125 0 125 290 0 290 0 0 -125z m540 0 l0 -125 -195 0
-195 0 0 125 0 125 195 0 195 0 0 -125z m930 0 l0 -125 -390 0 -390 0 0 125 0
125 390 0 390 0 0 -125z m-1470 -400 l0 -125 -290 0 -290 0 0 125 0 125 290 0
290 0 0 -125z m540 0 l0 -125 -195 0 -195 0 0 125 0 125 195 0 195 0 0 -125z
m930 0 l0 -125 -390 0 -390 0 0 125 0 125 390 0 390 0 0 -125z"/>
<path d="M3585 4145 l-25 -24 0 -876 0 -876 25 -24 c31 -32 69 -32 100 0 l25
24 0 876 0 876 -25 24 c-13 14 -36 25 -50 25 -14 0 -37 -11 -50 -25z"/>
<path d="M2335 3335 c-14 -13 -25 -36 -25 -50 0 -14 11 -37 25 -50 l24 -25
351 0 351 0 24 25 c14 13 25 36 25 50 0 14 -11 37 -25 50 l-24 25 -351 0 -351
0 -24 -25z"/>
<path d="M2516 2739 c-19 -15 -26 -30 -26 -54 0 -24 7 -39 26 -54 25 -20 39
-21 286 -21 l259 0 24 25 c14 13 25 36 25 50 0 14 -11 37 -25 50 l-24 25 -259
0 c-247 0 -261 -1 -286 -21z"/>
<path d="M985 4695 c-14 -13 -25 -36 -25 -50 0 -14 11 -37 25 -50 l24 -25 701
0 701 0 24 25 c32 31 32 69 0 100 l-24 25 -701 0 -701 0 -24 -25z"/>
<path d="M585 3835 c-14 -13 -25 -36 -25 -50 0 -14 11 -37 25 -50 l24 -25 699
0 c669 0 701 1 723 19 32 26 32 86 0 112 -22 18 -54 19 -723 19 l-699 0 -24
-25z"/>
<path d="M709 541 c-17 -13 -23 -29 -23 -56 0 -27 6 -43 23 -56 22 -18 50 -19
533 -19 l509 0 24 25 c14 13 25 36 25 50 0 14 -11 37 -25 50 l-24 25 -509 0
c-483 0 -511 -1 -533 -19z"/>
</g>
</svg>
