<?xml version="1.0" standalone="no"?>
<!DOCTYPE svg PUBLIC "-//W3C//DTD SVG 20010904//EN"
 "http://www.w3.org/TR/2001/REC-SVG-20010904/DTD/svg10.dtd">
<svg version="1.0" xmlns="http://www.w3.org/2000/svg"
 width="920.000000pt" height="512.000000pt" viewBox="0 0 920.000000 512.000000"
 preserveAspectRatio="xMidYMid meet">

<g transform="translate(0.000000,512.000000) scale(0.100000,-0.100000)"
fill="#000000" stroke="none">
<path d="M4512 5109 c-136 -23 -277 -146 -323 -282 l-18 -52 -488 -6 c-419 -5
-495 -8 -537 -22 -137 -47 -240 -149 -287 -285 -18 -53 -19 -118 -19 -2076 0
-2175 -3 -2053 50 -2157 32 -61 125 -150 191 -183 31 -15 85 -31 120 -37 40
-6 569 -9 1439 -7 1272 3 1379 4 1425 20 112 38 222 144 266 255 l24 58 3
2035 c2 1865 1 2039 -14 2085 -46 138 -151 244 -290 292 -42 14 -118 17 -537
22 l-488 6 -18 52 c-48 141 -186 259 -332 283 -73 11 -93 11 -167 -1z m206
-185 c88 -44 152 -141 152 -232 0 -24 8 -42 29 -63 29 -29 31 -29 145 -29 113
0 116 -1 148 -29 l32 -28 -1 -120 c-1 -126 -8 -155 -45 -174 -30 -16 -1126
-16 -1156 0 -37 19 -44 48 -45 174 l-1 120 32 28 c32 28 35 29 148 29 114 0
116 0 145 29 21 21 29 39 29 63 0 91 64 188 152 232 40 20 67 26 118 26 51 0
78 -6 118 -26z m-898 -350 c-6 -14 -10 -57 -10 -95 l0 -69 -279 0 c-154 0
-287 -3 -296 -6 -47 -18 -45 70 -45 -2028 l0 -1965 24 -28 24 -28 1362 0 1362
0 24 28 24 28 0 1973 0 1973 -25 27 -24 26 -286 0 -285 0 0 69 c0 38 -4 81
-10 95 l-10 26 300 0 c277 0 303 -1 354 -21 63 -23 136 -96 158 -157 11 -30
13 -410 13 -2042 l0 -2005 -21 -46 c-24 -51 -78 -110 -127 -136 -30 -17 -113
-18 -1447 -18 -1334 0 -1417 1 -1447 18 -49 26 -103 85 -127 136 l-21 46 0
2010 0 2010 22 45 c30 61 89 117 149 140 44 17 77 19 351 20 l303 0 -10 -26z
m19 -361 c23 -45 72 -93 121 -119 33 -18 69 -19 640 -19 571 0 607 1 640 19
49 26 98 74 121 119 l19 37 230 0 230 0 0 -1865 0 -1865 -1240 0 -1240 0 0
1865 0 1865 230 0 230 0 19 -37z"/>
<path d="M4580 4763 c-8 -3 -25 -15 -37 -26 -20 -18 -23 -30 -23 -94 0 -41 4
-83 10 -93 14 -26 65 -42 97 -29 43 16 52 38 53 120 0 66 -3 78 -22 96 -26 24
-56 34 -78 26z"/>
<path d="M5529 3690 c-9 -5 -74 -91 -144 -190 l-128 -180 -34 50 c-50 74 -106
88 -153 38 -32 -34 -25 -69 30 -151 101 -149 134 -174 195 -151 9 4 92 113
186 244 141 197 169 243 169 272 0 60 -69 99 -121 68z"/>
<path d="M3684 3606 c-58 -25 -65 -103 -12 -140 20 -14 88 -16 619 -16 580 0
597 1 622 20 51 40 42 111 -18 135 -49 21 -1163 21 -1211 1z"/>
<path d="M3668 3246 c-42 -31 -40 -113 2 -136 12 -6 203 -10 493 -10 l474 0
21 23 c30 32 29 81 -3 112 l-24 25 -473 0 c-372 -1 -477 -3 -490 -14z"/>
<path d="M5540 2987 c-22 -11 -60 -61 -234 -303 l-49 -68 -21 30 c-63 88 -114
107 -161 59 -36 -35 -32 -72 15 -141 111 -164 143 -191 199 -163 36 17 357
462 362 500 4 38 -10 68 -41 84 -35 18 -38 18 -70 2z"/>
<path d="M3680 2897 c-52 -26 -61 -95 -18 -134 19 -17 54 -18 629 -18 l608 0
23 22 c30 30 30 86 0 116 l-23 22 -597 2 c-469 2 -602 0 -622 -10z"/>
<path d="M3667 2538 c-21 -17 -38 -63 -30 -85 3 -10 15 -28 26 -40 l20 -23
474 0 474 0 24 25 c33 32 34 83 2 113 -23 22 -24 22 -498 22 -365 0 -479 -3
-492 -12z"/>
<path d="M5527 2270 c-13 -11 -80 -97 -148 -192 -122 -171 -122 -172 -138
-147 -56 88 -119 112 -166 64 -42 -41 -33 -71 51 -189 76 -109 104 -131 149
-120 33 8 55 35 224 272 131 186 151 219 151 252 0 68 -69 102 -123 60z"/>
<path d="M3672 2184 c-56 -39 -44 -125 20 -142 44 -12 1152 -12 1195 0 33 9
63 49 63 83 0 9 -13 30 -29 46 l-29 29 -599 0 c-533 0 -601 -2 -621 -16z"/>
<path d="M3690 1841 c-14 -4 -33 -22 -44 -42 -17 -31 -17 -38 -5 -64 26 -55
26 -55 517 -55 378 0 458 2 481 15 49 25 57 87 15 126 l-26 24 -456 2 c-251 1
-468 -2 -482 -6z"/>
<path d="M5524 1562 c-12 -9 -76 -94 -143 -189 l-122 -172 -43 52 c-37 45 -47
52 -83 55 -34 3 -44 -1 -62 -24 -35 -45 -27 -71 55 -187 54 -76 83 -109 102
-114 33 -9 62 -5 80 10 27 22 334 458 341 485 21 73 -67 132 -125 84z"/>
<path d="M3668 1476 c-27 -20 -39 -62 -27 -93 20 -54 -2 -52 646 -53 331 0
609 3 618 6 23 9 48 62 41 90 -4 13 -16 33 -28 44 -21 20 -33 20 -627 20 -481
-1 -610 -3 -623 -14z"/>
<path d="M3680 1127 c-51 -26 -61 -95 -18 -134 19 -17 49 -18 493 -18 l473 0
26 24 c42 39 34 101 -15 126 -39 20 -920 22 -959 2z"/>
</g>
</svg>
