<svg id="Layer_1_copy" data-name="Layer 1 copy" xmlns="http://www.w3.org/2000/svg" viewBox="0 0 55 100"><defs><style>.cls-1{fill:#f5f5f5;}.cls-2{fill:#005cb9;}</style></defs><rect class="cls-1" x="0.74" y="0.97" width="53.51" height="98.06" rx="26.76"/><path class="cls-2" d="M36.9,60.7a.76.76,0,0,1-.75-.75V43.76a.75.75,0,0,1,1.5,0V60A.75.75,0,0,1,36.9,60.7Z"/><path class="cls-2" d="M36.5,62.28a.79.79,0,0,1-.46-.15.75.75,0,0,1-.14-1.05,1.21,1.21,0,0,0,.25-.75V60a.75.75,0,0,1,1.5,0v.38A2.67,2.67,0,0,1,37.09,62,.72.72,0,0,1,36.5,62.28Z"/><path class="cls-2" d="M17.49,57.41a.74.74,0,0,1-.75-.75V38.75A2.74,2.74,0,0,1,19.48,36H39.79a.75.75,0,0,1,0,1.5H19.48a1.23,1.23,0,0,0-1.24,1.23V56.66A.75.75,0,0,1,17.49,57.41Z"/><path class="cls-2" d="M33.44,64H16.72a4.62,4.62,0,0,1-4.62-4.62v-2.7a.75.75,0,0,1,.75-.75h4.64a.75.75,0,0,1,0,1.5H13.6v2a3.12,3.12,0,0,0,3.12,3.12H33.44a.75.75,0,0,1,0,1.5Z"/><path class="cls-2" d="M29.38,60.7a.76.76,0,0,1-.75-.75V57.41H17.49a.75.75,0,1,1,0-1.5H29.38a.75.75,0,0,1,.75.75V60A.75.75,0,0,1,29.38,60.7Z"/><path class="cls-2" d="M36.5,62.28a.74.74,0,0,1-.36-.09.75.75,0,0,1-.3-1A2.6,2.6,0,0,0,36.15,60a.75.75,0,0,1,1.5,0,4,4,0,0,1-.5,1.94A.73.73,0,0,1,36.5,62.28Z"/><path class="cls-2" d="M33.62,64h-.95a4,4,0,0,1-2.8-1.13.75.75,0,0,1,0-1.06.76.76,0,0,1,1.06,0,2.52,2.52,0,0,0,1.76.71h.95a2.54,2.54,0,0,0,2.22-1.31.75.75,0,1,1,1.31.72A4,4,0,0,1,33.62,64Z"/><path class="cls-2" d="M30.39,63.06a.71.71,0,0,1-.52-.21A4,4,0,0,1,28.63,60a.75.75,0,0,1,1.5,0,2.51,2.51,0,0,0,.78,1.82.75.75,0,0,1,0,1.06A.72.72,0,0,1,30.39,63.06Z"/><path class="cls-2" d="M36.9,60.7a.75.75,0,0,1-.53-1.28.78.78,0,0,1,.24-.16.73.73,0,0,1,.58,0,.74.74,0,0,1,.4.4.75.75,0,0,1-.69,1Z"/><path class="cls-2" d="M29.38,60.7a.75.75,0,0,1-.69-1,.74.74,0,0,1,.4-.4.73.73,0,0,1,.58,0,.78.78,0,0,1,.24.16.75.75,0,0,1-.53,1.28Z"/><path class="cls-2" d="M42.15,44.51H36.9a.75.75,0,0,1,0-1.5h4.5V39.39a1.88,1.88,0,0,0-3.75,0,.75.75,0,0,1-1.5,0,3.38,3.38,0,0,1,6.75,0v4.37A.75.75,0,0,1,42.15,44.51Z"/><path class="cls-2" d="M36.9,44.51a.76.76,0,0,1-.75-.75V39.39a.75.75,0,0,1,1.5,0v4.37A.75.75,0,0,1,36.9,44.51Z"/><path class="cls-2" d="M26.65,50.29a.78.78,0,0,1-.47-.17L22.59,47.2A1.61,1.61,0,0,1,22,45.93V42.15a1.65,1.65,0,0,1,.93-1.47L26.33,39A.82.82,0,0,1,27,39l3.41,1.64a1.63,1.63,0,0,1,.93,1.47v3.78a1.63,1.63,0,0,1-.6,1.27l-3.59,2.92A.78.78,0,0,1,26.65,50.29Zm0-9.74L23.56,42a.13.13,0,0,0-.08.12v3.78a.16.16,0,0,0,.05.11l3.12,2.53L29.77,46a.16.16,0,0,0,.05-.11V42.15a.13.13,0,0,0-.08-.12Z"/><path class="cls-2" d="M26.32,46.44a.78.78,0,0,1-.48-.17l-1.28-1.06a.75.75,0,0,1,1-1.16l.75.63,1.47-1.45a.75.75,0,1,1,1.06,1.06l-2,1.93A.7.7,0,0,1,26.32,46.44Z"/><path class="cls-2" d="M33.14,52.57H20.64a.75.75,0,0,1,0-1.5h12.5a.75.75,0,0,1,0,1.5Z"/><path class="cls-2" d="M33.14,54.84H20.64a.75.75,0,0,1,0-1.5h12.5a.75.75,0,0,1,0,1.5Z"/></svg>