<svg id="Layer_1_copy" data-name="Layer 1 copy" xmlns="http://www.w3.org/2000/svg" viewBox="0 0 35 35"><defs><style>.cls-1{fill:#4d4d4d;}</style></defs><rect class="cls-1" x="26.15" y="11.26" width="1.5" height="16.19"/><path class="cls-1" d="M27.09,29.48l-1.19-.91a1.16,1.16,0,0,0,.25-.74v-.38h1.5v.38A2.67,2.67,0,0,1,27.09,29.48Z"/><path class="cls-1" d="M8.24,24.16H6.74V6.25A2.74,2.74,0,0,1,9.48,3.52H29.79V5H9.48A1.23,1.23,0,0,0,8.24,6.25Z"/><path class="cls-1" d="M23.44,31.48H6.72A4.62,4.62,0,0,1,2.1,26.86V23.41H7.49v1.5H3.6v1.95A3.12,3.12,0,0,0,6.72,30H23.44Z"/><polygon class="cls-1" points="20.14 27.45 18.64 27.45 18.64 24.91 7.49 24.91 7.49 23.41 20.14 23.41 20.14 27.45"/><path class="cls-1" d="M27.15,29.39l-1.31-.72a2.6,2.6,0,0,0,.31-1.22h1.5A4,4,0,0,1,27.15,29.39Z"/><path class="cls-1" d="M23.62,31.48h-.95a4,4,0,0,1-2.8-1.13l1-1.08a2.52,2.52,0,0,0,1.76.71h.95a2.54,2.54,0,0,0,2.22-1.31l1.31.72A4,4,0,0,1,23.62,31.48Z"/><path class="cls-1" d="M19.87,30.35a4,4,0,0,1-1.24-2.9h1.5a2.51,2.51,0,0,0,.78,1.82Z"/><path class="cls-1" d="M32.9,12h-6v-1.5h4.5V6.89a1.88,1.88,0,0,0-3.75,0h-1.5a3.38,3.38,0,0,1,6.75,0Z"/><rect class="cls-1" x="26.15" y="6.89" width="1.5" height="4.37"/><path class="cls-1" d="M16.65,18,12.59,14.7A1.61,1.61,0,0,1,12,13.43V9.65a1.65,1.65,0,0,1,.93-1.47l3.74-1.79,3.74,1.79a1.63,1.63,0,0,1,.93,1.47v3.78a1.63,1.63,0,0,1-.6,1.27Zm0-10L13.56,9.53a.13.13,0,0,0-.08.12v3.78a.16.16,0,0,0,0,.11l3.12,2.53,3.12-2.53a.16.16,0,0,0,.05-.11V9.65a.13.13,0,0,0-.08-.12Z"/><polygon class="cls-1" points="16.36 14.2 14.56 12.71 15.52 11.55 16.27 12.18 17.75 10.73 18.8 11.79 16.36 14.2"/><rect class="cls-1" x="10.63" y="18.57" width="12.51" height="1.5"/><rect class="cls-1" x="10.63" y="20.84" width="12.51" height="1.5"/></svg>