<?xml version="1.0" standalone="no"?>
<!DOCTYPE svg PUBLIC "-//W3C//DTD SVG 20010904//EN"
 "http://www.w3.org/TR/2001/REC-SVG-20010904/DTD/svg10.dtd">
<svg version="1.0" xmlns="http://www.w3.org/2000/svg"
 width="1591.000000pt" height="2250.000000pt" viewBox="0 0 1591.000000 2250.000000"
 preserveAspectRatio="xMidYMid meet">

<g transform="translate(0.000000,2250.000000) scale(0.100000,-0.100000)"
fill="#000000" stroke="none">
<path d="M2955 19401 c-6 -6 -41 -15 -79 -21 -38 -6 -76 -15 -85 -19 -9 -5
-33 -11 -53 -15 -20 -4 -50 -13 -65 -21 -15 -8 -33 -15 -39 -15 -11 0 -111
-46 -184 -85 -81 -43 -215 -144 -296 -222 -225 -218 -359 -466 -422 -783 -16
-79 -17 -540 -17 -6970 0 -6356 1 -6891 16 -6965 24 -115 50 -209 60 -220 5
-5 9 -15 9 -23 0 -8 16 -48 35 -89 19 -41 35 -77 35 -80 0 -3 14 -25 30 -50
17 -24 30 -46 30 -49 0 -5 42 -66 51 -74 3 -3 24 -30 46 -60 44 -60 177 -194
233 -235 224 -161 366 -227 620 -283 70 -16 440 -17 5090 -17 4582 1 5021 2
5085 17 108 25 157 39 192 54 17 8 35 14 41 14 5 0 42 16 81 35 39 19 73 35
76 35 11 0 115 68 185 121 100 75 257 236 321 328 116 167 193 353 230 561 20
110 21 13787 1 13900 -16 92 -53 241 -62 255 -4 6 -10 22 -14 38 -9 39 -73
171 -119 247 -85 140 -214 286 -337 382 -30 23 -57 45 -60 48 -11 13 -178 109
-240 137 -97 46 -243 92 -324 103 -39 6 -72 15 -74 20 -5 13 -9984 14 -9997 1z
m10025 -748 c112 -43 150 -64 230 -126 111 -86 202 -229 240 -376 20 -74 20
-150 20 -6927 0 -6818 0 -6852 -20 -6915 -35 -112 -80 -189 -156 -266 -102
-103 -174 -146 -324 -196 l-65 -22 -4940 0 -4940 0 -70 23 c-252 82 -414 247
-497 504 l-23 73 0 6830 c0 6671 0 6831 19 6885 35 101 58 155 91 205 110 170
280 286 480 329 11 2 2243 3 4960 2 l4940 -1 55 -22z"/>
<path d="M3615 17820 c-116 -25 -218 -122 -258 -247 -16 -48 -17 -435 -17
-5533 0 -5098 1 -5485 17 -5533 38 -117 114 -195 233 -240 43 -16 332 -17
4372 -17 3861 0 4330 2 4364 15 64 25 97 46 137 84 42 40 60 70 88 150 19 53
19 172 19 5534 0 5066 -1 5485 -17 5541 -9 34 -22 68 -30 77 -7 8 -13 20 -13
26 0 18 -100 102 -149 126 l-46 22 -4330 1 c-2381 1 -4348 -2 -4370 -6z m8223
-5777 l2 -5063 -3884 0 c-3532 0 -3884 1 -3890 16 -11 28 -7 10060 4 10088
l10 26 3877 -2 3878 -3 3 -5062z"/>
<path d="M5597 14876 c-120 -44 -203 -138 -234 -266 -15 -61 -15 -78 -4 -137
24 -123 100 -220 216 -274 l50 -24 1190 -3 c761 -2 1217 1 1265 7 115 16 195
65 253 156 65 100 80 194 48 292 -36 112 -91 176 -200 238 -35 20 -57 20
-1291 22 -1039 2 -1262 0 -1293 -11z"/>
<path d="M5652 12530 c-146 -22 -263 -138 -292 -291 -12 -62 -11 -79 3 -140
27 -112 91 -194 192 -248 l50 -26 2355 0 2355 0 49 24 c66 31 136 104 172 176
26 54 29 70 29 155 -1 70 -5 103 -18 125 -9 17 -17 35 -17 41 0 5 -23 35 -50
67 -35 38 -72 67 -118 89 l-67 33 -2295 1 c-1262 1 -2319 -2 -2348 -6z"/>
<path d="M5635 10171 c-86 -15 -198 -98 -236 -175 -26 -52 -49 -137 -49 -179
0 -43 22 -123 48 -173 26 -51 108 -126 171 -157 l46 -22 2345 0 2345 0 57 29
c73 37 141 105 176 176 24 48 27 67 27 150 0 83 -3 102 -27 151 -33 67 -115
148 -183 180 l-50 24 -2315 1 c-1273 1 -2333 -1 -2355 -5z"/>
<path d="M6893 5495 c-114 -28 -194 -88 -249 -188 -27 -48 -29 -60 -29 -162 0
-96 3 -116 24 -160 34 -67 104 -135 176 -171 l60 -29 1085 0 1085 0 65 32
c102 50 152 107 192 218 50 139 -12 320 -139 404 -105 70 -36 66 -1183 67
-811 2 -1046 -1 -1087 -11z"/>
</g>
</svg>
