<svg id="Layer_1_copy" data-name="Layer 1 copy" xmlns="http://www.w3.org/2000/svg" viewBox="0 0 55 100"><defs><style>.cls-1{fill:#f5f5f5;}.cls-2{fill:#005cb9;}</style></defs><rect class="cls-1" x="0.74" y="0.97" width="53.51" height="98.06" rx="26.76"/><rect class="cls-2" x="29.26" y="38.36" width="9.88" height="9.88" rx="1.78"/><path class="cls-2" d="M37.36,49H31a2.54,2.54,0,0,1-2.53-2.54V40.14A2.53,2.53,0,0,1,31,37.61h6.32a2.53,2.53,0,0,1,2.53,2.53v6.31A2.54,2.54,0,0,1,37.36,49ZM31,39.11a1,1,0,0,0-1,1v6.31a1,1,0,0,0,1,1h6.32a1,1,0,0,0,1-1V40.14a1,1,0,0,0-1-1Z"/><rect class="cls-2" x="15.86" y="51.76" width="9.88" height="9.88" rx="1.78"/><path class="cls-2" d="M24,62.39H17.64a2.53,2.53,0,0,1-2.53-2.53V53.54A2.53,2.53,0,0,1,17.64,51H24a2.54,2.54,0,0,1,2.53,2.53v6.32A2.53,2.53,0,0,1,24,62.39Zm-6.32-9.88a1,1,0,0,0-1,1v6.32a1,1,0,0,0,1,1H24a1,1,0,0,0,1-1V53.54a1,1,0,0,0-1-1Z"/><path class="cls-2" d="M20.8,49a5.69,5.69,0,1,1,5.69-5.69A5.7,5.7,0,0,1,20.8,49Zm0-9.88A4.19,4.19,0,1,0,25,43.3,4.2,4.2,0,0,0,20.8,39.11Z"/><path class="cls-2" d="M34.2,62.39a5.69,5.69,0,1,1,5.69-5.69A5.7,5.7,0,0,1,34.2,62.39Zm0-9.88a4.19,4.19,0,1,0,4.19,4.19A4.2,4.2,0,0,0,34.2,52.51Z"/></svg>