<svg id="Layer_1_copy" data-name="Layer 1 copy" xmlns="http://www.w3.org/2000/svg" viewBox="0 0 35 35"><defs><style>.cls-1{fill:#4d4d4d;}</style></defs><rect class="cls-1" x="19.26" y="5.86" width="9.88" height="9.88" rx="1.78"/><path class="cls-1" d="M27.36,16.49H21A2.54,2.54,0,0,1,18.51,14V7.64A2.53,2.53,0,0,1,21,5.11h6.32a2.53,2.53,0,0,1,2.53,2.53V14A2.54,2.54,0,0,1,27.36,16.49ZM21,6.61a1,1,0,0,0-1,1V14a1,1,0,0,0,1,1h6.32a1,1,0,0,0,1-1V7.64a1,1,0,0,0-1-1Z"/><rect class="cls-1" x="5.86" y="19.26" width="9.88" height="9.88" rx="1.78"/><path class="cls-1" d="M14,29.89H7.64a2.53,2.53,0,0,1-2.53-2.53V21a2.53,2.53,0,0,1,2.53-2.53H14A2.54,2.54,0,0,1,16.49,21v6.32A2.53,2.53,0,0,1,14,29.89ZM7.64,20a1,1,0,0,0-1,1v6.32a1,1,0,0,0,1,1H14a1,1,0,0,0,1-1V21a1,1,0,0,0-1-1Z"/><path class="cls-1" d="M10.8,16.49a5.69,5.69,0,1,1,5.69-5.69A5.7,5.7,0,0,1,10.8,16.49Zm0-9.88A4.19,4.19,0,1,0,15,10.8,4.2,4.2,0,0,0,10.8,6.61Z"/><path class="cls-1" d="M24.2,29.89a5.69,5.69,0,1,1,5.69-5.69A5.7,5.7,0,0,1,24.2,29.89Zm0-9.88a4.19,4.19,0,1,0,4.19,4.19A4.2,4.2,0,0,0,24.2,20Z"/></svg>