<?xml version="1.0" standalone="no"?>
<!DOCTYPE svg PUBLIC "-//W3C//DTD SVG 20010904//EN"
 "http://www.w3.org/TR/2001/REC-SVG-20010904/DTD/svg10.dtd">
<svg version="1.0" xmlns="http://www.w3.org/2000/svg"
 width="512.000000pt" height="512.000000pt" viewBox="0 0 512.000000 512.000000"
 preserveAspectRatio="xMidYMid meet">

<g transform="translate(0.000000,512.000000) scale(0.100000,-0.100000)"
fill="#000000" stroke="none">
<path d="M1308 4502 l-538 -537 0 -371 0 -371 -94 -5 c-142 -8 -232 -62 -287
-174 l-24 -49 0 -870 0 -870 27 -50 c59 -111 143 -161 287 -172 l91 -6 0 -347
c0 -395 3 -417 71 -494 23 -25 62 -59 87 -74 l47 -27 1770 -3 c1977 -3 1821
-8 1910 70 25 22 58 64 73 92 l27 51 0 2265 0 2265 -27 51 c-15 28 -48 70 -73
92 -88 77 19 72 -1474 72 l-1336 0 -537 -538z m3232 366 c18 -13 41 -39 51
-58 18 -33 19 -113 19 -2245 0 -2158 -1 -2211 -20 -2252 -11 -25 -33 -51 -52
-63 -33 -20 -46 -20 -1774 -20 l-1741 0 -34 23 c-68 45 -69 52 -69 435 l0 342
1158 0 c1256 0 1213 -2 1287 54 18 14 45 50 59 79 l27 53 -3 695 -3 694 -28
47 c-15 26 -41 57 -58 69 -71 50 -40 49 -1281 49 l-1158 0 0 545 0 545 435 0
c415 0 438 1 475 20 21 11 53 34 70 52 57 61 60 89 60 545 l0 413 1274 0 1273
0 33 -22z m-2732 -549 c-3 -246 -4 -269 -22 -288 -19 -21 -26 -21 -385 -21
l-366 0 385 385 385 385 3 -97 c2 -54 2 -218 0 -364z m-1219 -1695 c37 -12
253 -14 1252 -14 l1207 0 -20 -66 c-49 -165 -159 -349 -297 -496 l-82 -87 33
-3 c32 -3 33 -4 36 -55 l3 -53 -111 0 c-97 0 -116 -3 -141 -21 -29 -20 -29
-20 -29 -130 l0 -109 -55 0 -55 0 0 75 c0 41 -2 75 -4 75 -2 0 -42 -18 -89
-40 -257 -121 -568 -199 -942 -237 -164 -16 -750 -23 -774 -9 -8 5 -11 173
-11 603 0 563 1 595 18 588 9 -4 37 -14 61 -21z"/>
</g>
</svg>
