<svg id="Layer_1_copy" data-name="Layer 1 copy" xmlns="http://www.w3.org/2000/svg" viewBox="0 0 55 100"><defs><style>.cls-1{fill:#f5f5f5;}.cls-2{fill:#005cb9;}</style></defs><rect class="cls-1" x="0.74" y="0.97" width="53.51" height="98.06" rx="26.76"/><path class="cls-2" d="M27.5,52a7.77,7.77,0,1,1,7.77-7.77A7.78,7.78,0,0,1,27.5,52Zm0-14a6.27,6.27,0,1,0,6.27,6.27A6.27,6.27,0,0,0,27.5,38Z"/><path class="cls-2" d="M40.79,63.52a.75.75,0,0,1-.75-.75V60.09a4.22,4.22,0,0,0-4.21-4.21H19.17A4.22,4.22,0,0,0,15,60.09v2.68a.75.75,0,0,1-1.5,0V60.09a5.71,5.71,0,0,1,5.71-5.71H35.83a5.71,5.71,0,0,1,5.71,5.71v2.68A.74.74,0,0,1,40.79,63.52Z"/></svg>