<svg id="Layer_1_copy" data-name="Layer 1 copy" xmlns="http://www.w3.org/2000/svg" viewBox="0 0 120 120"><defs><style>.cls-1{fill:#005cb9;}.cls-2{fill:#fff;}</style></defs><path class="cls-1" d="M59.91,105.52h0c-12.13,0-23.42-6.77-31-18.48A1,1,0,0,1,30.61,86c7.19,11.12,17.87,17.53,29.3,17.56a1,1,0,1,1,0,2Z"/><path class="cls-1" d="M60,105.52a1,1,0,1,1,0-2c11.47,0,22.18-6.4,29.39-17.56A1,1,0,1,1,91.07,87C83.48,98.78,72.16,105.52,60,105.52Z"/><path class="cls-1" d="M60,105.52h-.1a1,1,0,0,1-1-1,1,1,0,0,1,1-1H60a1,1,0,0,1,1,1A1,1,0,0,1,60,105.52Z"/><path class="cls-1" d="M51.62,75.86a1,1,0,0,1-.34-1.94c.57-.2,1.15-.39,1.75-.55a1,1,0,0,1,.53,1.93c-.55.15-1.09.32-1.6.5A1.06,1.06,0,0,1,51.62,75.86Z"/><path class="cls-1" d="M51.6,79a1,1,0,0,1-.93-.65l-.19-.51a1,1,0,0,1-.06-.42l.2-2.61a1,1,0,0,1,2,.16l-.19,2.38.11.3A1,1,0,0,1,52,78.91,1,1,0,0,1,51.6,79Z"/><path class="cls-1" d="M68.37,78.94h-.12a1,1,0,0,1-.87-1.11c.08-.69.15-1.27.18-1.51L67.39,75a1,1,0,1,1,2-.26l.19,1.44a1,1,0,0,1,0,.24l-.2,1.65A1,1,0,0,1,68.37,78.94Z"/><path class="cls-1" d="M68.38,75.86a.92.92,0,0,1-.36-.07s-.59-.23-1.57-.49A1,1,0,1,1,67,73.37a18.08,18.08,0,0,1,1.79.56,1,1,0,0,1-.37,1.93Z"/><path class="cls-1" d="M68,21.05a1,1,0,0,1-1-.76c-.54-2.17-3.38-3.81-6.6-3.81S54.5,18,53.84,20.11a1,1,0,0,1-1.26.65,1,1,0,0,1-.65-1.25c.93-3,4.41-5,8.45-5s7.77,2.24,8.54,5.33A1,1,0,0,1,68.19,21,1,1,0,0,1,68,21.05Z"/><path class="cls-1" d="M69.48,80a1,1,0,0,1-.6-.21,7.55,7.55,0,0,1-1.27-1.21,1,1,0,0,1,.11-1.4,1,1,0,0,1,1.41.11,7.26,7.26,0,0,0,1,.91,1,1,0,0,1-.6,1.8Z"/><path class="cls-1" d="M67.75,78.1a1,1,0,0,1-.85-.47,8,8,0,0,1-1.18-3.14,1,1,0,0,1,2-.31,6.31,6.31,0,0,0,.9,2.38,1,1,0,0,1-.31,1.38A.94.94,0,0,1,67.75,78.1Z"/><path class="cls-1" d="M71.86,81.21a1,1,0,0,1-.28,0,7.88,7.88,0,0,1-1.18-.46,1,1,0,0,1-.48-1.32,1,1,0,0,1,1.33-.49,6.22,6.22,0,0,0,.89.35,1,1,0,0,1-.28,2Z"/><path class="cls-1" d="M70.82,80.81a1,1,0,0,1-.41-.09l-.33-.16A1,1,0,0,1,71,78.78l.23.12a1,1,0,0,1-.42,1.91Z"/><path class="cls-1" d="M69.72,80.18a1,1,0,0,1-.57-.18l.57-.82L69.1,80l-.14-.1a1,1,0,0,1,1.2-1.61l.13.1a1,1,0,0,1-.57,1.82Z"/><path class="cls-1" d="M70.54,80.67a.91.91,0,0,1-.45-.11,8.5,8.5,0,0,1-1-.56,1,1,0,0,1-.24-1.4,1,1,0,0,1,1.39-.24,5.75,5.75,0,0,0,.71.42,1,1,0,0,1,.43,1.35A1,1,0,0,1,70.54,80.67Z"/><path class="cls-1" d="M68.37,78.94a1,1,0,0,1-.76-.35,8.45,8.45,0,0,1-.71-1,1,1,0,0,1,1.69-1.07,5.63,5.63,0,0,0,.54.72A1,1,0,0,1,69,78.69,1,1,0,0,1,68.37,78.94Z"/><path class="cls-1" d="M69.58,80.07a1,1,0,0,1-.61-.2l-.13-.1a1,1,0,0,1-.18-1.39,1,1,0,0,1,1.42-.18l.12.1a1,1,0,0,1,.19,1.38A1,1,0,0,1,69.58,80.07Z"/><path class="cls-1" d="M66.7,75.33a1,1,0,0,1-1-.84,8.63,8.63,0,0,1-.11-1.85l.27-4A1,1,0,0,1,67,67.75a1,1,0,0,1,.93,1.06l-.27,4a6.36,6.36,0,0,0,.08,1.4,1,1,0,0,1-.83,1.14Z"/><path class="cls-1" d="M60,87.61a1,1,0,0,1-1-1,1,1,0,0,1,1-1,1,1,0,0,1,1,1v0A1,1,0,0,1,60,87.61Z"/><path class="cls-1" d="M51.6,79a1,1,0,0,1-.65-.25,1,1,0,0,1-.1-1.41,6.35,6.35,0,0,0,.56-.75,1,1,0,0,1,1.69,1.07,8.49,8.49,0,0,1-.74,1A1,1,0,0,1,51.6,79Z"/><path class="cls-1" d="M52.25,78.1a.94.94,0,0,1-.53-.16,1,1,0,0,1-.31-1.38,6.38,6.38,0,0,0,.9-2.38,1,1,0,1,1,2,.31,8,8,0,0,1-1.18,3.14A1,1,0,0,1,52.25,78.1Z"/><path class="cls-1" d="M50.23,80.19a1,1,0,0,1-.83-.42,1,1,0,0,1,.23-1.37l.21-.14A1,1,0,0,1,51,79.87a1.64,1.64,0,0,1-.22.14A1,1,0,0,1,50.23,80.19Z"/><path class="cls-1" d="M49.48,80.66a1,1,0,0,1-.89-.54A1,1,0,0,1,49,78.77a4.83,4.83,0,0,0,.62-.37,1,1,0,1,1,1.12,1.66,8.3,8.3,0,0,1-.81.49A1.11,1.11,0,0,1,49.48,80.66Z"/><path class="cls-1" d="M48.14,81.21a1,1,0,0,1-.28-2,6.22,6.22,0,0,0,.89-.35,1,1,0,0,1,.84,1.82,8.88,8.88,0,0,1-1.17.45A1,1,0,0,1,48.14,81.21Z"/><path class="cls-1" d="M49.18,80.81a1,1,0,0,1-.43-1.91l.26-.13a1,1,0,0,1,.93,1.78l-.34.17A1.06,1.06,0,0,1,49.18,80.81Z"/><path class="cls-1" d="M50.45,80.06a1,1,0,0,1-.59-1.81,6.09,6.09,0,0,0,1-.94,1,1,0,0,1,1.51,1.31,7.92,7.92,0,0,1-1.31,1.24A1,1,0,0,1,50.45,80.06Z"/><path class="cls-1" d="M50.44,80.07a1,1,0,0,1-.82-.43,1,1,0,0,1,.19-1.35.18.18,0,0,1,.07-.05,1,1,0,0,1,1.39.24,1,1,0,0,1-.18,1.35l-.07,0A1,1,0,0,1,50.44,80.07Z"/><path class="cls-1" d="M53.3,75.33h-.16a1,1,0,0,1-.83-1.14,6.36,6.36,0,0,0,.08-1.4l-.27-4a1,1,0,0,1,.93-1.06,1,1,0,0,1,1.06.93l.28,4a8.63,8.63,0,0,1-.11,1.85A1,1,0,0,1,53.3,75.33Z"/><path class="cls-1" d="M43.64,40.32a.93.93,0,0,1-.29,0A1,1,0,0,1,42.69,39l.06-.18A1,1,0,0,1,44,38.16a1,1,0,0,1,.66,1.21l-.08.24A1,1,0,0,1,43.64,40.32Z"/><path class="cls-1" d="M74.57,57.9a1,1,0,0,1-.38-.07,1,1,0,0,1-.55-1.31c.27-.64.53-1.29.76-1.94a1.5,1.5,0,0,1,1.16-.88h0A1,1,0,0,1,77,55.08l-.12.14a1.63,1.63,0,0,1-.76.39q-.32.84-.66,1.68A1,1,0,0,1,74.57,57.9Z"/><path class="cls-1" d="M53.11,69.69a1,1,0,0,1-.68-.28,36.49,36.49,0,0,1-7.86-12.12,1,1,0,1,1,1.84-.77A34.71,34.71,0,0,0,53.8,68a1,1,0,0,1-.69,1.73Z"/><path class="cls-1" d="M76.3,55.4a1,1,0,0,1-.69-.28,1,1,0,0,1,0-1.42c1.74-1.82,2.08-4.4,1.86-4.89a.75.75,0,0,0-.12-.21,1,1,0,0,1-.51-1.29,1,1,0,0,1,1.34-.52A2.18,2.18,0,0,1,79.26,48c.69,1.49-.14,4.92-2.23,7.11A1,1,0,0,1,76.3,55.4Z"/><path class="cls-1" d="M60.06,73.13a1,1,0,0,1-1-1,1,1,0,0,1,1-1l.44,0h.12l.36-.06.39-.08a11.12,11.12,0,0,0,4.88-3,1,1,0,0,1,1.42,0,1,1,0,0,1,0,1.41,13.06,13.06,0,0,1-5.79,3.44,3.78,3.78,0,0,1-.46.1l-.1,0c-.15,0-.34,0-.54.07h0Z"/><path class="cls-1" d="M60,73.13a5.83,5.83,0,0,1-.59,0h-.08L58.79,73a4.22,4.22,0,0,1-.52-.11,13.09,13.09,0,0,1-5.84-3.5A1,1,0,0,1,53.8,68a11.29,11.29,0,0,0,4.94,3l.36.08.48.06h0l.38,0a1,1,0,0,1,0,2Z"/><path class="cls-1" d="M42.91,48.78a1.12,1.12,0,0,1-.35-.06l-.06,0a1,1,0,0,1-.69-1.85c-.05-.56-.07-1.1-.07-1.61A20.89,20.89,0,0,1,42.69,39a1,1,0,1,1,1.91.59,18.93,18.93,0,0,0-.86,5.62,19.37,19.37,0,0,0,.17,2.43,1,1,0,0,1-.38.91A1,1,0,0,1,42.91,48.78Zm-.24-.14Z"/><path class="cls-1" d="M43.75,55.4a1,1,0,0,1-.72-.31C40.94,52.9,40.11,49.47,40.8,48a2.16,2.16,0,0,1,1.1-1.19,1,1,0,0,1,.83,1.82l-.12.2a6.51,6.51,0,0,0,1.87,4.89,1,1,0,0,1,0,1.42A1.05,1.05,0,0,1,43.75,55.4Zm-1-6.8Z"/><path class="cls-1" d="M45.49,57.9a1,1,0,0,1-.92-.61c-.23-.56-.46-1.12-.66-1.68a1.59,1.59,0,0,1-.77-.4L43,55.07a1,1,0,0,1,.1-1.4,1,1,0,0,1,1.35,0h0a1.51,1.51,0,0,1,1.16.88c.23.65.49,1.3.75,1.94a1,1,0,0,1-.54,1.31A1,1,0,0,1,45.49,57.9Z"/><path class="cls-1" d="M68,21.05a1,1,0,0,1-.3-.05,25.1,25.1,0,0,0-14.49-.23,1,1,0,0,1-1.24-.69,1,1,0,0,1,.69-1.23,27.05,27.05,0,0,1,15.64.25,1,1,0,0,1-.3,1.95Z"/><path class="cls-1" d="M42.29,48.72a1,1,0,0,1-.68-.27c-2.79-2.56-2.22-15.62-.68-19.55.14-.38.56-1.45,1.48-1.67.16-.22.44-.71.67-1.11,1-1.72,2.48-4.31,5-5.56a27.09,27.09,0,0,1,4.5-1.71,1,1,0,1,1,.55,1.92A24.59,24.59,0,0,0,49,22.36c-2,1-3.31,3.25-4.17,4.76-.67,1.16-1.1,1.91-1.82,2.05-.61.85-1.42,5.3-1.33,10.63.07,4.2.7,6.63,1.29,7.18A1,1,0,0,1,43,48.39,1,1,0,0,1,42.29,48.72Zm.46-21.53Z"/><path class="cls-1" d="M77.77,48.72a1,1,0,0,1-.73-.33,1,1,0,0,1,0-1.41c.61-.56,1.26-3,1.35-7.32.12-5.33-.65-9.79-1.25-10.66-.7-.14-1.15-.87-1.85-2-.9-1.46-2.27-3.66-4.27-4.64A25.65,25.65,0,0,0,67.65,21a1,1,0,1,1,.61-1.9A27,27,0,0,1,72,20.56C74.47,21.79,76,24.29,77,26a11.12,11.12,0,0,0,.74,1.11c.6.14,1.1.69,1.47,1.63,1.5,3.85,2,17.2-.8,19.76A1,1,0,0,1,77.77,48.72Z"/><path class="cls-1" d="M74.57,57.9h0a1,1,0,0,1-1-1,5.75,5.75,0,0,0,0-1.06A33.62,33.62,0,0,1,74,49.18c.18-1.44.36-2.93.48-4.28a1,1,0,1,1,2,.18c-.12,1.38-.31,2.89-.49,4.34a37.45,37.45,0,0,0-.48,6.08,7.32,7.32,0,0,1,0,1.45A1,1,0,0,1,74.57,57.9Z"/><path class="cls-1" d="M43.64,40.32a.82.82,0,0,1-.26,0,1,1,0,0,1-.7-1.23,3,3,0,0,1,.12-.36,1,1,0,1,1,1.85.75c0,.05,0,.09,0,.14A1,1,0,0,1,43.64,40.32Z"/><path class="cls-1" d="M75.39,47.05a.62.62,0,0,1-.19,0A1,1,0,0,1,74.4,46c0-.36.07-.71.1-1.05a1,1,0,0,1,.32-.65,14.16,14.16,0,0,0,.4-4.94C74,38.53,63.72,35,62.06,34.7a14.28,14.28,0,0,1-4.19,0c-1.33,0-11.8,3.16-13.14,4.6a1,1,0,0,0-.07.16,1,1,0,0,1-1.86-.75,2.5,2.5,0,0,1,.47-.78c1.79-1.92,13.59-5.47,15-5.19a14,14,0,0,0,3.21.08c.46-.29,1.42-.09,7.47,2,4.48,1.53,7.05,2.56,7.63,3.07,1.75,1.51-.22,8.44-.24,8.5A1,1,0,0,1,75.39,47.05Zm-.19-7.8ZM62.69,34.41a1.25,1.25,0,0,1-.53.26A1,1,0,0,0,62.69,34.41Z"/><path class="cls-1" d="M70.54,80.67a.91.91,0,0,1-.45-.11,7.24,7.24,0,0,1-1-.57,1,1,0,0,1,1.15-1.63,5.75,5.75,0,0,0,.71.42,1,1,0,0,1,.43,1.35A1,1,0,0,1,70.54,80.67Z"/><path class="cls-1" d="M70.82,80.81a1,1,0,0,1-.41-.09l-.33-.16A1,1,0,0,1,71,78.78l.23.12a1,1,0,0,1-.42,1.91Z"/><path class="cls-1" d="M71.86,81.21a.84.84,0,0,1-.27,0,7.56,7.56,0,0,1-1.19-.46,1,1,0,0,1-.48-1.32,1,1,0,0,1,1.33-.49,6.22,6.22,0,0,0,.89.35,1,1,0,0,1-.28,2Z"/><path class="cls-1" d="M60,87.61a1,1,0,0,1-.7-.29,1,1,0,0,1,0-1.41,1,1,0,0,1,1.47,1.35l0,0A1,1,0,0,1,60,87.61Z"/><path class="cls-1" d="M69.55,80.06a1,1,0,0,1-.6-.2l-.07-.07a1,1,0,0,1-.16-1.4,1,1,0,0,1,1.37-.19l.08.07a1,1,0,0,1-.62,1.79Z"/><path class="cls-1" d="M59.91,87.52a1,1,0,0,1-.72-.31l-.31-.32a1,1,0,1,1,1.43-1.4l.32.34a1,1,0,0,1,0,1.41A1,1,0,0,1,59.91,87.52Z"/><path class="cls-1" d="M60,87.61a1,1,0,0,1-.68-.28L60,86.6l.72-.69h0a1,1,0,0,1,0,1.4A1,1,0,0,1,60,87.61Z"/><path class="cls-1" d="M60,87.59a1,1,0,0,1-.69-.29l.68-.74-.75.66a1,1,0,0,1,0-1.42,1,1,0,0,1,1.41,0l.05.05A1,1,0,0,1,60,87.59Z"/><path class="cls-1" d="M69.72,80.18a1,1,0,0,1-.57-.18L69,79.87a1,1,0,0,1-.21-1.4,1,1,0,0,1,1.4-.21l.13.09a1,1,0,0,1,.26,1.39A1,1,0,0,1,69.72,80.18Z"/><path class="cls-1" d="M90.23,87.5a1,1,0,0,1-.76-.35,4.59,4.59,0,0,0-2.23-1.46L71.58,81.17a1,1,0,1,1,.56-1.92L87.8,83.77A6.69,6.69,0,0,1,91,85.85a1,1,0,0,1-.76,1.65Z"/><path class="cls-1" d="M31.58,86.08a1,1,0,0,1-.9-.57,1,1,0,0,1,.47-1.33,6.35,6.35,0,0,1,1.05-.41l15.66-4.52a1,1,0,1,1,.56,1.92L32.76,85.69A4.38,4.38,0,0,0,32,86,1.13,1.13,0,0,1,31.58,86.08Z"/><path class="cls-1" d="M59.19,87.21l-.31-.32a1,1,0,1,1,1.43-1.4l.32.33Z"/><path class="cls-1" d="M31.58,86.08a1,1,0,0,1-.9-.57,1,1,0,0,1,.47-1.33,5.67,5.67,0,0,1,1.06-.41l15.65-4.52a1,1,0,1,1,.56,1.92L32.76,85.69A4.2,4.2,0,0,0,32,86,1.13,1.13,0,0,1,31.58,86.08Z"/><path class="cls-1" d="M50.23,80.19a1,1,0,0,1-.83-.42,1,1,0,0,1,.23-1.37l.21-.14A1,1,0,0,1,51,79.87a1.64,1.64,0,0,1-.22.14A1,1,0,0,1,50.23,80.19Z"/><path class="cls-1" d="M49.48,80.66A1,1,0,0,1,49,78.78c.21-.12.42-.24.62-.38a1,1,0,0,1,1.13,1.66c-.27.17-.54.34-.82.48A1,1,0,0,1,49.48,80.66Z"/><path class="cls-1" d="M48.14,81.21a1,1,0,0,1-.28-2,5.79,5.79,0,0,0,.89-.35,1,1,0,0,1,.85,1.82,8.11,8.11,0,0,1-1.19.45A.84.84,0,0,1,48.14,81.21Z"/><path class="cls-1" d="M49.18,80.81a1,1,0,0,1-.43-1.91l.26-.13a1,1,0,0,1,.93,1.78l-.34.16A.92.92,0,0,1,49.18,80.81Z"/><path class="cls-1" d="M50.45,80.06a1,1,0,0,1-.59-1.81,5.37,5.37,0,0,0,.53-.44,1,1,0,0,1,1.36,1.47c-.22.2-.46.4-.7.58A1,1,0,0,1,50.45,80.06Z"/><path class="cls-1" d="M50.44,80.07a1,1,0,0,1-.82-.43,1,1,0,0,1,.19-1.35l0,0a1,1,0,0,1,1.4.22,1,1,0,0,1-.17,1.36l-.07,0A1,1,0,0,1,50.44,80.07Z"/><path class="cls-1" d="M29.77,87.5A1,1,0,0,1,29,85.85a6.55,6.55,0,0,1,2.14-1.67A1,1,0,0,1,32,86a4.57,4.57,0,0,0-1.49,1.17A1,1,0,0,1,29.77,87.5Z"/><path class="cls-1" d="M60,87.59a1,1,0,0,1-.89-.55v0a1,1,0,1,1,1.34.47A1,1,0,0,1,60,87.59Z"/><path class="cls-1" d="M69.56,80.06a1,1,0,0,1-1-.9,11,11,0,0,0-1.08-3.86,1,1,0,0,1,1.8-.88A13,13,0,0,1,70.55,79a1,1,0,0,1-.9,1.09Z"/><path class="cls-1" d="M63.77,95.26h0a1,1,0,0,1-.89-.56L59.11,87a1,1,0,0,1,1.8-.88l2.89,5.9,3.52-6.65a11,11,0,0,0,1.24-6.25,1,1,0,0,1,.91-1.09,1,1,0,0,1,1.08.9,13.1,13.1,0,0,1-1.46,7.38l-4.44,8.38A1,1,0,0,1,63.77,95.26Z"/><circle class="cls-1" cx="69.56" cy="79.06" r="1"/><path class="cls-1" d="M67.75,78.1a1,1,0,0,1-.93-1.38,7.3,7.3,0,0,0,.38-1.15l.21-.93a1,1,0,0,1,2,.44l-.21.93a9.89,9.89,0,0,1-.48,1.46A1,1,0,0,1,67.75,78.1Z"/><path class="cls-1" d="M50.44,80.07h-.09a1,1,0,0,1-.9-1.09,13.09,13.09,0,0,1,1.27-4.55,1,1,0,1,1,1.8.88,11,11,0,0,0-1.08,3.86A1,1,0,0,1,50.44,80.07Z"/><path class="cls-1" d="M50.44,80.07a1.23,1.23,0,0,1-.38-.08,1,1,0,0,1-.32-.21,1,1,0,0,1-.3-.71,1,1,0,0,1,.3-.71,1,1,0,0,1,.32-.21.87.87,0,0,1,.77,0,1,1,0,0,1,.32.21.83.83,0,0,1,.22.33,1.07,1.07,0,0,1,0,.76,1,1,0,0,1-.22.33A1,1,0,0,1,50.44,80.07Z"/><path class="cls-1" d="M60,87.6a1,1,0,0,1-.44-.1,1,1,0,0,1,.88-1.81A1,1,0,0,1,60.9,87v0A1,1,0,0,1,60,87.6Z"/><path class="cls-1" d="M59.91,87.76a1,1,0,0,1-.44-.1A1,1,0,0,1,59,86.32l.08-.16a1,1,0,1,1,1.8.88l-.08.16A1,1,0,0,1,59.91,87.76Z"/><path class="cls-1" d="M56.23,95.26a1,1,0,0,1-.88-.53l-4.44-8.38A13.1,13.1,0,0,1,49.45,79a1,1,0,0,1,1.08-.9,1,1,0,0,1,.91,1.09,11,11,0,0,0,1.24,6.25l3.52,6.65L59,86.32a1,1,0,0,1,1.34-.45,1,1,0,0,1,.46,1.33l-3.68,7.5a1,1,0,0,1-.89.56Z"/><path class="cls-2" d="M61.07,68.55v-.9c14.53,0,16.28-12.34,16.35-12.87l.89.12C78.3,55,76.41,68.55,61.07,68.55Z"/><path class="cls-2" d="M61.07,69.55a1,1,0,0,1-1-1v-.9a1,1,0,0,1,1-1c13.66,0,15.29-11.5,15.36-12a1,1,0,0,1,1.12-.87l.89.12A1,1,0,0,1,79.31,55C79.29,55.17,77.31,69.55,61.07,69.55Z"/><rect class="cls-2" x="57.86" y="66.92" width="4.75" height="2.15" rx="0.75"/><path class="cls-2" d="M61.86,70.07H58.61a1.76,1.76,0,0,1-1.75-1.76v-.64a1.75,1.75,0,0,1,1.75-1.75h3.25a1.75,1.75,0,0,1,1.75,1.75v.64A1.75,1.75,0,0,1,61.86,70.07Zm-3-2h2.75v-.15H58.86Z"/><path class="cls-2" d="M76.69,57.57l1-.28a13.83,13.83,0,0,0,.61-2.39l-.89-.12A14.34,14.34,0,0,1,76.69,57.57Z"/><path class="cls-2" d="M76.69,58.57a1,1,0,0,1-.74-.32,1,1,0,0,1-.2-1,14.1,14.1,0,0,0,.68-2.57,1,1,0,0,1,.38-.67,1.07,1.07,0,0,1,.74-.2l.89.12A1,1,0,0,1,79.31,55a16.32,16.32,0,0,1-.66,2.59,1,1,0,0,1-.69.64l-1,.28A.82.82,0,0,1,76.69,58.57Z"/><path class="cls-2" d="M77.22,56.09l-.81-.16a.88.88,0,0,1-.71-1l1.46-7.72a.9.9,0,0,1,1-.72l.81.15A1.22,1.22,0,0,1,80,48l-1.35,7.12A1.22,1.22,0,0,1,77.22,56.09Z"/><path class="cls-2" d="M77.45,57.11a2,2,0,0,1-.42,0l-.8-.15a1.91,1.91,0,0,1-1.52-2.22L76.18,47a1.9,1.9,0,0,1,2.22-1.51l.8.15a2.22,2.22,0,0,1,1.42.93A2.19,2.19,0,0,1,81,48.19l-1.35,7.12a2.22,2.22,0,0,1-.93,1.42A2.18,2.18,0,0,1,77.45,57.11ZM76.7,55l.7.13h0a.24.24,0,0,0,.25-.16L79,47.82a.24.24,0,0,0-.17-.24l-.71-.14Z"/><path class="cls-2" d="M78.62,55.12h0L80,47.9h0A.92.92,0,0,1,80.73,49l-1,5.39A.92.92,0,0,1,78.62,55.12Z"/><path class="cls-2" d="M78.8,56.14l-.37,0a1,1,0,0,1-.79-1.17L79,47.71a1,1,0,0,1,1.17-.79,1.93,1.93,0,0,1,1.54,2.26l-1,5.39a1.88,1.88,0,0,1-.81,1.24A1.91,1.91,0,0,1,78.8,56.14Z"/><path class="cls-1" d="M61.07,68.55v-.9c14.53,0,16.28-12.34,16.35-12.87l.89.12C78.3,55,76.41,68.55,61.07,68.55Z"/><rect class="cls-1" x="57.86" y="66.92" width="4.75" height="2.15" rx="0.75"/><path class="cls-1" d="M76.69,57.57l1-.28a13.83,13.83,0,0,0,.61-2.39l-.89-.12A14.34,14.34,0,0,1,76.69,57.57Z"/><path class="cls-1" d="M77.22,56.09l-.81-.16a.88.88,0,0,1-.71-1l1.46-7.72a.9.9,0,0,1,1-.72l.81.15A1.22,1.22,0,0,1,80,48l-1.35,7.12A1.22,1.22,0,0,1,77.22,56.09Z"/><path class="cls-1" d="M78.62,55.12h0L80,47.9h0A.92.92,0,0,1,80.73,49l-1,5.39A.92.92,0,0,1,78.62,55.12Z"/></svg>