<svg id="Layer_1_copy" data-name="Layer 1 copy" xmlns="http://www.w3.org/2000/svg" viewBox="0 0 120 120"><defs><style>.cls-1{fill:#005cb9;}</style></defs><path class="cls-1" d="M60,65.17A24.06,24.06,0,1,1,84.06,41.11,24.09,24.09,0,0,1,60,65.17Zm0-46.12A22.06,22.06,0,1,0,82.06,41.11,22.08,22.08,0,0,0,60,19.05Z"/><path class="cls-1" d="M103.66,103a1,1,0,0,1-1-1v-8.8a15.31,15.31,0,0,0-15.3-15.3H32.64a15.31,15.31,0,0,0-15.3,15.3V102a1,1,0,0,1-2,0v-8.8a17.32,17.32,0,0,1,17.3-17.3H87.36a17.32,17.32,0,0,1,17.3,17.3V102A1,1,0,0,1,103.66,103Z"/></svg>