<svg id="Layer_1_copy" data-name="Layer 1 copy" xmlns="http://www.w3.org/2000/svg" viewBox="0 0 120 120"><defs><style>.cls-1{fill:#005cb9;}</style></defs><path class="cls-1" d="M111.36,66.55H100.88a5.39,5.39,0,0,1-5.38-5.39v-3.5a1,1,0,0,1,2,0v3.5a3.39,3.39,0,0,0,3.38,3.39h10.48a1,1,0,0,1,0,2Z"/><path class="cls-1" d="M95.56,58.52a1,1,0,0,1-.46-.11c-8.59-4.49-13.21-9.94-17.28-14.74C72,36.75,67.34,31.29,53.42,30.85c-20.21-2-25,5-30.56,13.2-3.54,5.22-7.2,10.61-15,14.31a1,1,0,0,1-1.34-.48A1,1,0,0,1,7,56.55c7.29-3.46,10.8-8.63,14.19-13.62,5.66-8.35,11-16.23,32.35-14.07,14.73.46,19.85,6.51,25.79,13.51,4,4.67,8.43,10,16.68,14.26A1,1,0,0,1,96.45,58,1,1,0,0,1,95.56,58.52Z"/><path class="cls-1" d="M73.35,53.47h-43a2.58,2.58,0,0,1-1.94-.88,2.55,2.55,0,0,1-.63-2A15.25,15.25,0,0,1,42.93,37.23H57.57c6.56,0,11,5,15.73,10.19l1.82,2A2.36,2.36,0,0,1,75.56,52,2.39,2.39,0,0,1,73.35,53.47ZM42.93,39.23A13.24,13.24,0,0,0,29.79,50.84a.51.51,0,0,0,.13.42.62.62,0,0,0,.45.21h43a.41.41,0,0,0,.38-.25.39.39,0,0,0-.08-.44c-.62-.67-1.23-1.35-1.84-2-4.6-5.12-8.57-9.53-14.24-9.53Z"/><path class="cls-1" d="M80.7,87.48H41.18a1,1,0,1,1,0-2H80.7a1,1,0,0,1,0,2Z"/><path class="cls-1" d="M114.34,87.48H97.74a1,1,0,0,1,0-2h16.6A1.69,1.69,0,0,0,116,83.79V80.67A22.25,22.25,0,0,0,93.81,58.45H5.66A1.69,1.69,0,0,0,4,60.14V83.79a1.69,1.69,0,0,0,1.69,1.69H24.14a1,1,0,0,1,0,2H5.66A3.7,3.7,0,0,1,2,83.79V60.14a3.7,3.7,0,0,1,3.69-3.69H93.81A24.25,24.25,0,0,1,118,80.67v3.12A3.7,3.7,0,0,1,114.34,87.48Z"/><path class="cls-1" d="M32.66,91.5a12,12,0,0,1-9.29-4.38,1,1,0,0,1,1.54-1.28,10,10,0,0,0,15.5,0A1,1,0,0,1,42,87.12,12,12,0,0,1,32.66,91.5Z"/><path class="cls-1" d="M41.18,87.48a1,1,0,0,1-.64-.23,1,1,0,0,1-.13-1.41,10,10,0,1,0-15.5,0,1,1,0,0,1-1.54,1.28,12,12,0,1,1,18.58,0A1,1,0,0,1,41.18,87.48Z"/><path class="cls-1" d="M89.22,91.5a12,12,0,0,1-9.29-4.38,1,1,0,0,1,1.54-1.28,10,10,0,0,0,15.5,0,1,1,0,0,1,1.54,1.28A12,12,0,0,1,89.22,91.5Z"/><path class="cls-1" d="M97.74,87.48a1,1,0,0,1-.64-.23A1,1,0,0,1,97,85.84a10,10,0,1,0-15.5,0,1,1,0,0,1-1.54,1.28,12,12,0,1,1,18.58,0A1,1,0,0,1,97.74,87.48Z"/><path class="cls-1" d="M52.67,53.47a1,1,0,0,1-1-1V38.23a1,1,0,0,1,2,0V52.47A1,1,0,0,1,52.67,53.47Z"/><path class="cls-1" d="M6.54,65.88H3a1,1,0,0,1-1-1V62.59a1,1,0,0,1,2,0v1.29H6.54a4.15,4.15,0,0,0,4.14-4.14V58.45H8.11a1,1,0,1,1,0-2h3.57a1,1,0,0,1,1,1v2.29A6.15,6.15,0,0,1,6.54,65.88Z"/></svg>